
<svg width="206px" height="50px" viewBox="0 0 206 50" version="1.1" xmlns="http://www.w3.org/2000/svg" xmlns:xlink="http://www.w3.org/1999/xlink">
    <!-- Generator: Sketch 43.2 (39069) - http://www.bohemiancoding.com/sketch -->
    <desc>Created with Sketch.</desc>
    <defs></defs>
    <g id="1920" stroke="none" stroke-width="1" fill="none" fill-rule="evenodd">
        <g id="qlab_desktop_home" transform="translate(-375.000000, -45.000000)" fill="#181E21">
            <g id="1" transform="translate(375.000000, 45.000000)">
                <g id="quantumlab_logo">
                    <path d="M60.8857669,26.3761589 L63.0501861,26.3761589 L64.0706791,27.8609272 C64.7222066,27.2493377 65.126534,26.3410596 65.126534,25.2930464 C65.126534,23.3019868 63.7010465,21.8523179 61.7124363,21.8523179 C59.7421742,21.8523179 58.3337004,23.3019868 58.3337004,25.2930464 C58.3337004,27.2844371 59.7421742,28.7344371 61.7124363,28.7344371 C61.9062599,28.7344371 62.0824025,28.7168874 62.2758925,28.6993377 L60.8857669,26.6205298 L60.8857669,26.3761589 Z M56.1342528,25.2930464 C56.1342528,22.2715232 58.2636437,19.8258278 61.7124363,19.8258278 C65.179577,19.8258278 67.3089679,22.2715232 67.3089679,25.2930464 C67.3089679,27.0576159 66.5697026,28.6294702 65.2849957,29.6251656 L66.3938936,31.2321192 L66.3938936,31.4592715 L64.123722,31.4592715 L63.4902091,30.515894 C62.9444338,30.6731788 62.3459492,30.7602649 61.7124363,30.7602649 C58.2636437,30.7602649 56.1342528,28.3149007 56.1342528,25.2930464 L56.1342528,25.2930464 Z" id="Fill-1"></path>
                    <path d="M72.5987511,26.061755 L72.5987511,20.0531457 L74.728142,20.0531457 L74.728142,26.061755 C74.728142,27.511755 75.5901733,28.7339404 77.3325841,28.7339404 C79.092676,28.7339404 79.9016644,27.5289735 79.9016644,26.061755 L79.9016644,20.0531457 L82.0310552,20.0531457 L82.0310552,26.061755 C82.0310552,28.7690397 80.2893116,30.7604305 77.3325841,30.7604305 C74.4112187,30.7604305 72.5987511,28.7690397 72.5987511,26.061755" id="Fill-3"></path>
                    <polygon id="Fill-5" points="111.622516 30.5333444 111.112103 30.5333444 104.038041 24.140298 104.038041 30.5333444 101.908317 30.5333444 101.908317 20.0532119 102.436411 20.0532119 109.510806 26.3065232 109.510806 20.0707616 111.622516 20.0707616"></polygon>
                    <polygon id="Fill-7" points="116.55878 20.0530464 125.568742 20.0530464 125.568742 21.904702 122.13763 21.904702 122.13763 30.5331788 120.008239 30.5331788 120.008239 21.904702 116.55878 21.904702"></polygon>
                    <path d="M130.41213,26.061755 L130.41213,20.0531457 L132.541521,20.0531457 L132.541521,26.061755 C132.541521,27.511755 133.403552,28.7339404 135.145963,28.7339404 C136.906055,28.7339404 137.715043,27.5289735 137.715043,26.061755 L137.715043,20.0531457 L139.844434,20.0531457 L139.844434,26.061755 C139.844434,28.7690397 138.102691,30.7604305 135.145963,30.7604305 C132.224598,30.7604305 130.41213,28.7690397 130.41213,26.061755" id="Fill-9"></path>
                    <polygon id="Fill-11" points="154.470344 24.3500331 151.408198 27.4242053 150.986189 27.4242053 147.906362 24.3500331 147.906362 30.5331457 145.776971 30.5331457 145.776971 20.0530132 146.357775 20.0530132 151.161665 24.7516887 156.018931 20.0530132 156.582054 20.0530132 156.582054 30.5331457 154.470344 30.5331457"></polygon>
                    <polygon id="Fill-13" points="168.458237 30.5333444 168.458237 20.0532119 170.587628 20.0532119 170.587628 28.6816887 176.218854 28.6816887 176.218854 30.5333444"></polygon>
                    <path d="M198.536925,26.0093377 L198.536925,28.6815232 L201.686476,28.6815232 C202.689955,28.6815232 203.358496,28.1229139 203.358496,27.3368212 C203.358496,26.5686093 202.672274,26.0093377 201.652114,26.0093377 L198.536925,26.0093377 Z M201.44061,21.904702 L198.536925,21.904702 L198.536925,24.454702 L201.422929,24.454702 C202.47845,24.454702 203.059254,23.9133113 203.059254,23.1798675 C203.059254,22.3762252 202.496131,21.904702 201.44061,21.904702 L201.44061,21.904702 Z M201.616752,30.5331788 L196.407534,30.5331788 L196.407534,20.0530464 L201.475972,20.0530464 C203.974328,20.0530464 205.312078,21.1010596 205.312078,22.9003974 C205.312078,23.8609934 204.819346,24.6295364 203.974328,24.9964238 L203.974328,25.223245 C204.995488,25.5553642 205.629001,26.3934437 205.629001,27.4768874 C205.629001,29.4507285 204.097428,30.5331788 201.616752,30.5331788 L201.616752,30.5331788 Z" id="Fill-15"></path>
                    <path d="M24.0086068,31.3566887 C23.3013675,31.5696026 22.5517605,31.6854967 21.7751317,31.6854967 C17.5223548,31.6854967 14.062887,28.2510596 14.062887,24.0298675 C14.062887,19.8086755 17.5223548,16.3742384 21.7751317,16.3742384 C26.0279086,16.3742384 29.4880436,19.8086755 29.4880436,24.0298675 C29.4880436,26.5513907 28.2530436,28.7907947 26.3525047,30.1864901 L28.1272751,31.9474172 C30.4721738,30.0901325 31.9793942,27.2321854 31.9793942,24.0298675 C31.9793942,18.4454305 27.4020212,13.902053 21.7751317,13.902053 C16.1489094,13.902053 11.5715363,18.4454305 11.5715363,24.0298675 C11.5715363,29.6143046 16.1489094,34.1576821 21.7751317,34.1576821 C23.2579991,34.1576821 24.6668065,33.8394702 25.93917,33.2725828 L24.0086068,31.3566887 Z" id="Fill-17"></path>
                    <path d="M40.8556815,35.8863245 L31.6482261,41.1638079 L21.7752318,46.821755 L11.9022374,41.1638079 L2.69511561,35.8863245 L2.69511561,18.7032119 L2.69511561,14.0174503 L10.6375467,9.46513245 L21.7752318,3.08201987 L32.9132504,9.46513245 L40.8556815,14.0174503 L40.8556815,18.7032119 L40.8556815,35.8863245 Z M33.6608558,7.03831126 L21.7768998,0.226059603 L21.7752318,0.22705298 L21.7738974,0.226059603 L9.88994138,7.03831126 L0.204098595,12.5886424 L0.204098595,12.590298 L0.204098595,18.7032119 L0.204098595,37.3151325 L11.2697253,43.6565232 L21.774231,49.6780464 L21.7752318,49.6767219 L21.7768998,49.6780464 L32.2807382,43.6565232 L43.3463649,37.3151325 L43.3463649,18.7032119 L43.3463649,12.590298 L43.3463649,12.5886424 L33.6608558,7.03831126 Z" id="Fill-19"></path>
                    <path d="M21.8351803,22.2815894 L15.5447535,28.5233113 C16.0371522,29.1931788 16.6349696,29.7812583 17.3161879,30.2617219 L21.8351803,25.777947 L31.2084367,35.0796026 L32.9701965,33.3309272 L21.8351803,22.2815894 Z" id="Fill-21"></path>
                    <polygon id="Fill-23" points="91.7365473 20.0529139 91.3669146 20.0529139 85.9468593 30.5333775 88.3578115 30.5333775 89.0266864 29.1012583 89.0276872 29.1012583 89.76395 27.5290728 89.7479371 27.5290728 89.8643647 27.3148344 90.6126372 25.7174834 91.4726669 23.8784106 91.6134476 23.8784106 92.9064946 26.6429801 93.2647847 27.3943046 93.3381775 27.5290728 93.3288366 27.5290728 94.4233895 29.8231126 94.7633314 30.5333775 97.1746172 30.5333775"></polygon>
                    <polygon id="Fill-25" points="186.235898 20.0529139 185.865932 20.0529139 180.44621 30.5333775 182.857162 30.5333775 183.526037 29.1012583 183.527038 29.1012583 184.263301 27.5290728 184.247288 27.5290728 184.363382 27.3158278 185.112322 25.7161589 185.972018 23.8784106 186.112799 23.8784106 187.50626 26.8578808 187.750458 27.3688079 187.837528 27.5290728 187.826853 27.5290728 188.908396 29.7939735 189.262682 30.5333775 191.673301 30.5333775"></polygon>
                </g>
            </g>
        </g>
    </g>
</svg>